<?xml version="1.0" encoding="UTF-8"?><svg id="a" xmlns="http://www.w3.org/2000/svg" viewBox="0 0 1205.46 947.15"><defs><style>.b{fill:#f02c00;}.c{fill:#fff;}.d{fill:#347e00;}.e{fill:#73bf2e;}</style></defs><rect class="e" y="258.31" width="86.1" height="86.1"/><rect class="e" x="86.1" y="258.31" width="86.1" height="86.1"/><rect class="e" x="86.1" y="172.21" width="86.1" height="86.1"/><rect class="e" x="172.21" y="172.21" width="86.1" height="86.1"/><rect class="e" x="172.21" y="86.1" width="86.1" height="86.1"/><rect class="e" x="258.31" y="86.1" width="86.1" height="86.1"/><rect class="e" x="258.31" width="86.1" height="86.1"/><rect class="e" x="344.42" y="0" width="86.1" height="86.1"/><rect class="e" x="430.52" y="0" width="86.1" height="86.1"/><rect class="e" x="516.62" y="0" width="86.1" height="86.1"/><rect class="e" x="688.83" y="0" width="86.1" height="86.1"/><rect class="e" x="774.94" y="0" width="86.1" height="86.1"/><rect class="e" x="861.04" y="0" width="86.1" height="86.1"/><rect class="e" x="947.15" y="0" width="86.1" height="86.1"/><rect class="e" x="344.42" y="86.1" width="86.1" height="86.1"/><rect class="e" x="430.52" y="86.1" width="86.1" height="86.1"/><rect class="e" x="516.62" y="86.1" width="86.1" height="86.1"/><rect class="d" x="602.73" y="86.1" width="86.1" height="86.1"/><rect class="e" x="688.83" y="86.1" width="86.1" height="86.1"/><rect class="e" x="774.94" y="86.1" width="86.1" height="86.1"/><rect class="e" x="861.04" y="86.1" width="86.1" height="86.1"/><rect class="e" x="947.15" y="86.1" width="86.1" height="86.1"/><rect class="e" x="1033.25" y="86.1" width="86.1" height="86.1"/><rect class="e" x="258.31" y="172.21" width="86.1" height="86.1"/><rect class="e" x="344.42" y="172.21" width="86.1" height="86.1"/><rect class="e" x="430.52" y="172.21" width="86.1" height="86.1"/><rect class="e" x="516.62" y="172.21" width="86.1" height="86.1"/><rect class="e" x="602.73" y="172.21" width="86.1" height="86.1"/><rect class="d" x="688.83" y="172.21" width="86.1" height="86.1"/><rect class="e" x="774.94" y="172.21" width="86.1" height="86.1"/><rect class="e" x="861.04" y="172.21" width="86.1" height="86.1"/><rect class="e" x="947.15" y="172.21" width="86.1" height="86.1"/><rect class="e" x="1033.25" y="172.21" width="86.1" height="86.1"/><rect class="e" x="1119.35" y="172.21" width="86.1" height="86.1"/><rect class="e" x="172.21" y="258.31" width="86.1" height="86.1"/><rect class="c" x="258.31" y="258.31" width="86.1" height="86.1"/><rect class="c" x="344.42" y="258.31" width="86.1" height="86.1"/><rect class="c" x="430.52" y="258.31" width="86.1" height="86.1"/><rect x="516.62" y="258.31" width="86.1" height="86.1"/><rect class="c" x="602.73" y="258.31" width="86.1" height="86.1"/><rect class="d" x="688.83" y="258.31" width="86.1" height="86.1"/><rect class="c" x="774.94" y="258.31" width="86.1" height="86.1"/><rect class="c" x="861.04" y="258.31" width="86.1" height="86.1"/><rect class="c" x="947.15" y="258.31" width="86.1" height="86.1"/><rect x="1033.25" y="258.31" width="86.1" height="86.1"/><rect class="c" x="1119.35" y="258.31" width="86.1" height="86.1"/><rect class="e" x="86.1" y="344.42" width="86.1" height="86.1"/><rect class="e" y="344.42" width="86.1" height="86.1"/><rect class="e" y="430.52" width="86.1" height="86.1"/><rect class="e" y="516.62" width="86.1" height="86.1"/><rect class="e" y="602.73" width="86.1" height="86.1"/><rect class="e" y="688.83" width="86.1" height="86.1"/><rect class="e" x="86.1" y="688.83" width="86.1" height="86.1"/><rect class="e" x="86.1" y="774.94" width="86.1" height="86.1"/><rect class="e" x="172.21" y="774.94" width="86.1" height="86.1"/><rect class="e" x="172.21" y="861.04" width="86.1" height="86.1"/><rect class="e" x="258.31" y="861.04" width="86.1" height="86.1"/><rect class="e" x="344.42" y="861.04" width="86.1" height="86.1"/><rect class="e" x="430.52" y="861.04" width="86.1" height="86.1"/><rect class="e" x="516.62" y="861.04" width="86.1" height="86.1"/><rect class="e" x="602.73" y="861.04" width="86.1" height="86.1"/><rect class="e" x="688.83" y="861.04" width="86.1" height="86.1"/><rect class="e" x="774.94" y="861.04" width="86.1" height="86.1"/><rect class="e" x="861.04" y="861.04" width="86.1" height="86.1"/><rect class="e" x="947.15" y="861.04" width="86.1" height="86.1"/><rect class="e" x="258.31" y="774.94" width="86.1" height="86.1"/><rect class="e" x="344.42" y="774.94" width="86.1" height="86.1"/><rect class="e" x="430.52" y="774.94" width="86.1" height="86.1"/><rect class="e" x="516.62" y="774.94" width="86.1" height="86.1"/><rect class="e" x="602.73" y="774.94" width="86.1" height="86.1"/><rect class="e" x="688.83" y="774.94" width="86.1" height="86.1"/><rect class="e" x="774.94" y="774.94" width="86.1" height="86.1"/><rect class="e" x="861.04" y="774.94" width="86.1" height="86.1"/><rect class="e" x="947.15" y="774.94" width="86.1" height="86.1"/><rect class="e" x="1033.25" y="774.94" width="86.1" height="86.1"/><rect class="b" x="172.21" y="688.83" width="86.1" height="86.1"/><rect class="b" x="258.31" y="688.83" width="86.1" height="86.1"/><rect class="b" x="344.42" y="688.83" width="86.1" height="86.1"/><rect class="b" x="430.52" y="688.83" width="86.1" height="86.1"/><rect class="b" x="516.62" y="688.83" width="86.1" height="86.1"/><rect class="b" x="602.73" y="688.83" width="86.1" height="86.1"/><rect class="b" x="688.83" y="688.83" width="86.1" height="86.1"/><rect class="b" x="774.94" y="688.83" width="86.1" height="86.1"/><rect class="b" x="861.04" y="688.83" width="86.1" height="86.1"/><rect class="b" x="947.15" y="688.83" width="86.1" height="86.1"/><rect class="b" x="1033.25" y="688.83" width="86.1" height="86.1"/><rect class="b" x="1119.35" y="688.83" width="86.1" height="86.1"/><rect class="e" x="86.1" y="602.73" width="86.1" height="86.1"/><rect class="b" x="172.21" y="602.73" width="86.1" height="86.1"/><rect x="258.31" y="602.73" width="86.1" height="86.1"/><rect x="344.42" y="602.73" width="86.1" height="86.1"/><rect x="430.52" y="602.73" width="86.1" height="86.1"/><rect x="516.62" y="602.73" width="86.1" height="86.1"/><rect x="602.73" y="602.73" width="86.1" height="86.1"/><rect x="688.83" y="602.73" width="86.1" height="86.1"/><rect x="774.94" y="602.73" width="86.1" height="86.1"/><rect x="861.04" y="602.73" width="86.1" height="86.1"/><rect x="947.15" y="602.73" width="86.1" height="86.1"/><rect x="1033.25" y="602.73" width="86.1" height="86.1"/><rect x="1119.35" y="602.73" width="86.1" height="86.1"/><rect class="e" x="86.1" y="516.62" width="86.1" height="86.1"/><rect class="b" x="172.21" y="516.62" width="86.1" height="86.1"/><rect class="b" x="258.31" y="516.62" width="86.1" height="86.1"/><rect class="b" x="344.42" y="516.62" width="86.1" height="86.1"/><rect class="b" x="430.52" y="516.62" width="86.1" height="86.1"/><rect class="b" x="516.62" y="516.62" width="86.1" height="86.1"/><rect class="b" x="602.73" y="516.62" width="86.1" height="86.1"/><rect class="b" x="688.83" y="516.62" width="86.1" height="86.1"/><rect class="b" x="774.94" y="516.62" width="86.1" height="86.1"/><rect class="b" x="861.04" y="516.62" width="86.1" height="86.1"/><rect class="b" x="947.15" y="516.62" width="86.1" height="86.1"/><rect class="b" x="1033.25" y="516.62" width="86.1" height="86.1"/><rect class="b" x="1119.35" y="516.62" width="86.1" height="86.1"/><rect class="e" x="86.1" y="430.52" width="86.1" height="86.1"/><rect class="e" x="172.21" y="430.52" width="86.1" height="86.1"/><rect class="e" x="258.31" y="430.52" width="86.1" height="86.1"/><rect class="e" x="344.42" y="430.52" width="86.1" height="86.1"/><rect class="e" x="430.52" y="430.52" width="86.1" height="86.1"/><rect class="e" x="516.62" y="430.52" width="86.1" height="86.1"/><rect class="e" x="602.73" y="430.52" width="86.1" height="86.1"/><rect class="e" x="688.83" y="430.52" width="86.1" height="86.1"/><rect class="e" x="774.94" y="430.52" width="86.1" height="86.1"/><rect class="e" x="861.04" y="430.52" width="86.1" height="86.1"/><rect class="e" x="947.15" y="430.52" width="86.1" height="86.1"/><rect class="e" x="1033.25" y="430.52" width="86.1" height="86.1"/><rect class="e" x="1119.35" y="430.52" width="86.1" height="86.1"/><rect class="e" x="172.21" y="344.42" width="86.1" height="86.1"/><rect class="e" x="258.31" y="344.42" width="86.1" height="86.1"/><rect class="c" x="344.42" y="344.42" width="86.1" height="86.1"/><rect class="c" x="430.52" y="344.42" width="86.1" height="86.1"/><rect x="516.62" y="344.42" width="86.1" height="86.1"/><rect x="602.73" y="344.42" width="86.1" height="86.1"/><rect class="d" x="688.83" y="344.42" width="86.1" height="86.1"/><rect class="d" x="774.94" y="344.42" width="86.1" height="86.1"/><rect class="c" x="861.04" y="344.42" width="86.1" height="86.1"/><rect class="c" x="947.15" y="344.42" width="86.1" height="86.1"/><rect x="1033.25" y="344.42" width="86.1" height="86.1"/><rect x="1119.35" y="344.42" width="86.1" height="86.1"/></svg>